<?xml version="1.0" encoding="utf-8"?>
<!-- Generator: Adobe Illustrator 19.1.0, SVG Export Plug-In . SVG Version: 6.00 Build 0)  -->
<svg version="1.1" id="Layer_1" xmlns="http://www.w3.org/2000/svg" xmlns:xlink="http://www.w3.org/1999/xlink" x="0px" y="0px"
	 viewBox="0 0 30 22.4" style="enable-background:new 0 0 30 22.4;" xml:space="preserve">
<style type="text/css">
	.st0{fill-rule:evenodd;clip-rule:evenodd;fill:#696969;}
</style>
<g>
	<g>
		<path class="st0" d="M2,5.3h26c1.1,0,2-0.9,2-2s-0.9-2-2-2H2c-1.1,0-2,0.9-2,2S0.9,5.3,2,5.3z M28,9.3H2c-1.1,0-2,0.9-2,2
			s0.9,2,2,2h26c1.1,0,2-0.9,2-2S29.1,9.3,28,9.3z M28,17.3H2c-1.1,0-2,0.9-2,2s0.9,2,2,2h26c1.1,0,2-0.9,2-2S29.1,17.3,28,17.3z"/>
	</g>
</g>
</svg>
