<?xml version="1.0" encoding="utf-8"?>
<!-- Generator: Adobe Illustrator 19.1.0, SVG Export Plug-In . SVG Version: 6.00 Build 0)  -->
<svg version="1.1" id="Layer_1" xmlns="http://www.w3.org/2000/svg" xmlns:xlink="http://www.w3.org/1999/xlink" x="0px" y="0px"
	 viewBox="0 0 14 14" style="enable-background:new 0 0 14 14;" xml:space="preserve">
<style type="text/css">
	.st0{fill:#696969;}
</style>
<path class="st0" d="M13.8,11.7L9.7,7.5c0,0,0,0,0,0C10,6.8,10.1,6,10.1,5.2C10.1,2.3,7.9,0,5.1,0C2.3,0,0,2.3,0,5.2
	c0,2.9,2.3,5.2,5.1,5.2c1,0,1.9-0.3,2.7-0.8l4,4.1c0.3,0.3,0.9,0.3,1.2,0l0.8-0.8C14.1,12.6,14.1,12,13.8,11.7z M1.3,5.2
	c0-2.2,1.7-3.9,3.8-3.9s3.8,1.8,3.8,3.9c0,2.2-1.7,3.9-3.8,3.9S1.3,7.4,1.3,5.2z"/>
</svg>
