<svg width="50" height="74" viewBox="0 0 50 74" fill="none" xmlns="http://www.w3.org/2000/svg">
<path d="M0 63.7981H0.123438C0.274683 63.7902 0.42108 63.7421 0.547403 63.6585C0.700568 63.5366 0.81747 63.3752 0.885485 63.1916C1.00916 62.8824 1.09739 62.5601 1.14846 62.231C1.22359 61.8178 1.28799 61.2758 1.34702 60.621L1.47046 59.0969H4.5777V63.8195H5.40954V65.993H4.60455V64.5869H0.799634V65.993H0V63.7981ZM3.70832 63.7981V59.8429H2.27545L2.19494 60.723C2.15737 61.1362 2.11981 61.5065 2.07151 61.8339C2.0345 62.1255 1.97711 62.4143 1.89978 62.6979C1.84359 62.9181 1.77001 63.1334 1.67975 63.3419C1.6061 63.505 1.51236 63.6582 1.40069 63.7981H3.70832Z" fill="#231F20"/>
<path d="M33.9116 12.4666C34.9259 12.3002 35.4464 13.6687 36.509 13.0301C36.2943 13.7385 36.4124 14.9674 35.7309 15.5309L35.162 18.0318C34.7863 18.123 34.8776 17.8869 34.7166 17.6776C34.2175 16.9209 33.3481 16.9209 33.0207 16.0676C33.3696 14.8923 33.4876 13.6204 33.9116 12.4398V12.4666ZM41.5107 24.1336C39.5733 22.5236 37.314 21.2141 35.7362 19.2553C35.5913 18.6918 35.9938 18.3591 35.8543 17.7956C36.7237 16.1856 36.2782 13.717 38.0009 12.4666C38.0278 12.2519 37.6467 11.9943 37.4374 11.9299C37.0832 12.5632 36.1655 12.1607 35.5055 12.2788C34.8185 11.9031 34.3463 10.8674 33.6862 11.3611C32.7685 12.59 33.4769 14.581 32.4626 15.6544C31.0727 14.6884 29.8491 13.5775 28.384 12.59C27.3107 11.6723 25.8134 10.8244 25.3197 9.42911L26.1246 8.066C25.3894 7.8728 25.3465 8.76902 24.7562 8.74755C24.7079 8.69925 24.6113 8.62948 24.6381 8.51142H23.8599C23.7633 9.00514 23.4575 9.58474 24.1873 9.64377C24.0493 10.3671 23.6477 11.0135 23.0603 11.4577C21.2196 14.2376 18.2036 16.0085 15.8208 18.4825C14.3825 19.1641 13.8888 20.6721 12.5472 21.5254C11.8388 22.3465 10.9372 23.0334 10.4005 24.0209C10.1429 24.0209 9.78874 23.9296 9.60091 24.1389C9.83168 25.0566 8.52759 25.2713 8.70468 25.9528C8.60809 26.5217 9.24135 26.2856 9.48285 26.6129C9.817 28.5983 9.89636 30.6181 9.71898 32.6235C9.92828 34.9365 9.18232 36.729 9.15012 39.0634H9.03206C8.72616 42.5303 8.72615 46.2332 8.58662 49.6034C7.8997 51.1597 8.98375 52.5712 8.23242 54.0094C8.60808 54.6963 9.01059 53.7733 9.36478 54.3421C9.74044 54.267 10.2825 54.5514 10.4918 54.1275C14.1763 54.591 17.9017 54.6306 21.5953 54.2455C25.9583 55.4476 31.0941 54.8359 35.7416 54.3421C37.495 54.6173 39.2694 54.7358 41.0438 54.6963C40.9472 54.3153 41.4678 53.843 41.398 53.564C41.1136 53.8699 40.6896 53.5371 40.593 53.2098C40.6198 51.2993 40.8291 49.5766 40.7111 47.4568C40.8992 47.0259 40.9407 46.5451 40.8291 46.0883C41.2799 44.7252 40.593 42.6483 40.8291 41.3281C40.6896 41.0222 41.0921 40.6681 40.9472 40.1958C39.8417 37.7003 41.135 35.1512 40.7111 32.6289C40.7111 32.2532 41.2477 31.8078 40.7111 31.5019C41.3282 29.3553 40.9955 27.0906 41.7253 24.7132C41.94 24.7829 42.0098 24.5683 42.1761 24.5951C42.1064 24.359 41.8434 24.0048 41.516 24.1443" fill="white"/>
<path d="M33.9115 12.4666C34.9258 12.3002 35.4463 13.6687 36.5089 13.0301C36.2943 13.7384 36.4123 14.9674 35.7308 15.5309L35.1619 18.0317C34.7863 18.1229 34.8775 17.8868 34.7165 17.6775C34.2174 16.9208 33.348 16.9208 33.0206 16.0675C33.3695 14.8923 33.4875 13.6204 33.9115 12.4397" fill="white"/>
<path d="M40.507 4.4382C40.3353 4.6797 39.6806 4.80313 39.6806 5.23783H39.4659L36.7826 7.68499" fill="white"/>
<path d="M7.86745 64.6406C7.57234 64.6444 7.27975 64.5859 7.00879 64.4689C6.76171 64.3631 6.5389 64.2078 6.35407 64.0127C6.17076 63.8216 6.02833 63.5952 5.93548 63.3473C5.73977 62.8284 5.73977 62.2561 5.93548 61.7373C6.02814 61.4864 6.1726 61.2578 6.35944 61.0664C6.5457 60.873 6.76815 60.718 7.01417 60.6103C7.4083 60.437 7.84586 60.3878 8.26864 60.4693C8.69141 60.5508 9.07935 60.7591 9.38084 61.0664C9.56428 61.2595 9.70668 61.4877 9.79943 61.7373C10.0028 62.2547 10.0028 62.8299 9.79943 63.3473C9.70657 63.5952 9.56414 63.8216 9.38084 64.0127C9.19404 64.208 8.96945 64.3632 8.72074 64.4689C8.45168 64.5859 8.16083 64.6444 7.86745 64.6406ZM6.66534 62.553C6.66221 62.736 6.69314 62.918 6.75656 63.0897C6.81253 63.2475 6.89814 63.3932 7.00879 63.519C7.11829 63.6375 7.24945 63.7341 7.39519 63.8034C7.54238 63.8747 7.70391 63.9114 7.86745 63.9107C8.03266 63.9109 8.19584 63.8743 8.34509 63.8034C8.49055 63.7338 8.62022 63.6352 8.72611 63.5136C8.83682 63.3859 8.9224 63.2384 8.97834 63.0789C9.04421 62.9078 9.07699 62.7257 9.07494 62.5423C9.0766 62.3589 9.04384 62.1769 8.97834 62.0056C8.92362 61.8439 8.83795 61.6945 8.72611 61.5655C8.62022 61.4439 8.49055 61.3453 8.34509 61.2757C8.19547 61.2066 8.03227 61.1717 7.86745 61.1738C7.70572 61.1739 7.54612 61.2106 7.40056 61.2811C7.25485 61.3526 7.12522 61.4531 7.01954 61.5763C6.90943 61.7063 6.82066 61.8531 6.75656 62.011C6.69591 62.1834 6.66507 62.3649 6.66534 62.5476" fill="#231F20"/>
<path d="M12.9442 62.8858L14.2322 60.5191H15.0909V64.5601H14.2698V61.909L13.1696 63.9269H12.7296L11.6133 61.909V64.5601H10.7976V60.5191H11.6616L12.9442 62.8858Z" fill="#231F20"/>
<path d="M18.3162 64.5601V59.0701H20.6184C20.8563 59.0688 21.0913 59.122 21.3054 59.2257C21.5091 59.3254 21.6914 59.4639 21.842 59.6336C21.9896 59.8021 22.1076 59.9945 22.1908 60.2024C22.2753 60.4104 22.319 60.6327 22.3196 60.8572C22.3188 61.0841 22.2789 61.3092 22.2016 61.5226C22.1242 61.7328 22.0097 61.9273 21.8635 62.0968C21.7136 62.2658 21.531 62.4028 21.3268 62.4993C21.1155 62.5994 20.8844 62.6508 20.6506 62.6496H19.1641V64.5547L18.3162 64.5601ZM19.1802 61.8768H20.6131C20.7286 61.8806 20.8431 61.8548 20.9458 61.8017C21.0464 61.75 21.1344 61.6767 21.2034 61.587C21.2804 61.4895 21.3386 61.3785 21.3751 61.2597C21.4194 61.1283 21.4412 60.9904 21.4395 60.8518C21.44 60.7093 21.4164 60.5678 21.3698 60.4332C21.3248 60.3154 21.2594 60.2064 21.1765 60.1112C21.0952 60.0247 20.9989 59.9538 20.8921 59.9019C20.7895 59.8547 20.6777 59.8309 20.5648 59.8321H19.1802V61.8768Z" fill="#231F20"/>
<path d="M24.8742 64.6406C24.5774 64.6437 24.2832 64.5853 24.0101 64.4689C23.7656 64.3628 23.5446 64.209 23.3603 64.0164C23.176 63.8238 23.032 63.5963 22.9368 63.3473C22.7411 62.8285 22.7411 62.2561 22.9368 61.7373C23.0296 61.4877 23.172 61.2595 23.3554 61.0665C23.5517 60.8644 23.7872 60.7045 24.0474 60.5966C24.3076 60.4886 24.5871 60.4348 24.8688 60.4386C25.1498 60.4343 25.4286 60.4878 25.688 60.5958C25.9475 60.7039 26.1819 60.8641 26.3768 61.0665C26.5619 61.2592 26.7061 61.4874 26.8008 61.7373C26.9965 62.2561 26.9965 62.8285 26.8008 63.3473C26.706 63.5956 26.5618 63.822 26.3768 64.0127C26.191 64.2068 25.9684 64.3618 25.7221 64.4689C25.4527 64.5849 25.1621 64.6433 24.8688 64.6406H24.8742ZM23.6613 62.553C23.661 62.7358 23.6919 62.9173 23.7525 63.0897C23.8124 63.2469 23.8997 63.3922 24.0101 63.519C24.1177 63.6374 24.2471 63.734 24.3912 63.8034C24.5404 63.8743 24.7036 63.911 24.8688 63.9108C25.0323 63.9114 25.1939 63.8747 25.341 63.8034C25.489 63.7355 25.6208 63.6367 25.7274 63.5136C25.8381 63.3859 25.9237 63.2384 25.9797 63.079C26.0438 62.9075 26.0748 62.7253 26.0709 62.5423C26.0743 62.3593 26.0433 62.1773 25.9797 62.0056C25.925 61.844 25.8393 61.6945 25.7274 61.5656C25.6208 61.4426 25.489 61.3438 25.341 61.2758C25.1934 61.2063 25.0319 61.1715 24.8688 61.1738C24.707 61.174 24.5474 61.2106 24.4019 61.2811C24.2546 61.3526 24.1231 61.453 24.0155 61.5763C23.905 61.7051 23.8179 61.8522 23.7579 62.011C23.6929 62.1824 23.6601 62.3643 23.6613 62.5477" fill="#231F20"/>
<path d="M28.6093 62.1237H30.45V60.5191H31.2818V64.5601H30.45V62.8428H28.6093V64.5601H27.7721V60.5191H28.6093V62.1237Z" fill="#231F20"/>
<path d="M33.4607 64.6407C33.2775 64.6415 33.0956 64.6087 32.9241 64.5441C32.7647 64.4838 32.6188 64.3926 32.4948 64.2757C32.3714 64.1631 32.2727 64.026 32.205 63.8732C32.1378 63.7154 32.1031 63.5457 32.103 63.3741C32.0984 63.1877 32.1409 63.0032 32.2264 62.8375C32.3127 62.6799 32.4339 62.5441 32.5806 62.4404C32.7403 62.318 32.9227 62.2286 33.1173 62.1774C33.3419 62.1108 33.5753 62.0782 33.8096 62.0808C33.9984 62.0803 34.187 62.0965 34.3731 62.1291C34.545 62.1607 34.7138 62.2074 34.8775 62.2686V61.9896C34.8853 61.8618 34.8664 61.7338 34.8221 61.6136C34.7777 61.4935 34.7089 61.384 34.6199 61.2919C34.522 61.2022 34.4067 61.1335 34.2811 61.0901C34.1556 61.0468 34.0225 61.0296 33.8901 61.0397C33.6717 61.0388 33.4551 61.0789 33.2514 61.1577C33.0242 61.2468 32.8081 61.3621 32.6075 61.5012L32.3445 60.9645C32.8147 60.6272 33.3759 60.4401 33.9545 60.4279C34.4263 60.4 34.8909 60.5536 35.2532 60.8572C35.4136 61.0149 35.5379 61.2054 35.6175 61.4157C35.6972 61.626 35.7304 61.8511 35.7147 62.0754V63.5351C35.7147 63.7176 35.7898 63.8088 35.9401 63.8142V64.5387L35.7254 64.5709H35.5537C35.4155 64.5805 35.279 64.5362 35.1727 64.4475C35.0827 64.3641 35.0239 64.2523 35.0063 64.1308V63.8732C34.8269 64.1013 34.5974 64.2849 34.3355 64.4099C34.0685 64.5351 33.7771 64.5993 33.4822 64.5977L33.4607 64.6407ZM33.713 63.9698C33.9134 63.9708 34.1122 63.9325 34.2979 63.8571C34.4666 63.7942 34.615 63.6866 34.7272 63.5459C34.7746 63.512 34.8137 63.4678 34.8415 63.4167C34.8694 63.3656 34.8854 63.3089 34.8883 63.2507V62.7141C34.739 62.656 34.5844 62.6129 34.4267 62.5853C34.2713 62.5535 34.1131 62.5374 33.9545 62.537C33.6913 62.5246 33.4307 62.594 33.2085 62.7355C33.1163 62.7906 33.0407 62.8695 32.9897 62.9639C32.9387 63.0584 32.9142 63.1649 32.9187 63.2722C32.9172 63.3676 32.9367 63.4622 32.9756 63.5494C33.0145 63.6365 33.072 63.7141 33.1441 63.7766C33.2209 63.8464 33.3106 63.9002 33.4082 63.9352C33.5058 63.9702 33.6094 63.9856 33.713 63.9806" fill="#231F20"/>
<path d="M40.8827 63.8303H41.1081C41.2218 63.8123 41.328 63.762 41.414 63.6854C41.5106 63.5866 41.584 63.4674 41.6287 63.3366C41.6975 63.13 41.7496 62.9183 41.7843 62.7033C41.8272 62.4457 41.8701 62.113 41.9077 61.7105L42.0419 60.5191H44.7252V63.8303H45.2618V65.7784H44.5159V64.5601H41.6448V65.7784H40.9256L40.8827 63.8303ZM43.8719 63.8303V61.2168H42.7986L42.702 61.9574C42.6495 62.3545 42.576 62.7486 42.4819 63.138C42.423 63.3855 42.3193 63.6201 42.176 63.8303H43.8719Z" fill="#231F20"/>
<path d="M47.1241 64.6406C46.9408 64.6415 46.7589 64.6088 46.5874 64.544C46.4264 64.4837 46.2787 64.3926 46.1527 64.2757C46.0326 64.1614 45.9359 64.0246 45.8683 63.8732C45.7969 63.7165 45.7602 63.5463 45.761 63.3741C45.7564 63.1877 45.7988 63.0031 45.8844 62.8375C45.9739 62.6821 46.0945 62.5469 46.2386 62.4403C46.3986 62.3186 46.5809 62.2293 46.7752 62.1774C46.9998 62.1104 47.2332 62.0778 47.4675 62.0808C47.6474 62.0823 47.8269 62.0985 48.0042 62.1291C48.1742 62.1613 48.3412 62.208 48.5033 62.2686V61.9895C48.5108 61.8622 48.4923 61.7347 48.449 61.6147C48.4056 61.4948 48.3383 61.3849 48.251 61.2919C48.1518 61.2025 48.0355 61.1342 47.9091 61.0908C47.7828 61.0475 47.649 61.0301 47.5158 61.0396C47.2975 61.0393 47.081 61.0793 46.8772 61.1577C46.6499 61.2468 46.4338 61.3621 46.2332 61.5012L45.9702 60.9645C46.4409 60.6281 47.0019 60.4411 47.5802 60.4278C48.0522 60.3988 48.5173 60.5526 48.8789 60.8572C49.04 61.0146 49.1651 61.2049 49.2457 61.4152C49.3263 61.6255 49.3604 61.8507 49.3458 62.0754V63.5351C49.3458 63.7176 49.421 63.8088 49.5659 63.8142V64.5387L49.3566 64.5709H49.1848C49.0452 64.5791 48.9074 64.5351 48.7984 64.4474C48.7084 64.364 48.6497 64.2523 48.6321 64.1308V63.8732C48.4538 64.1023 48.2239 64.2862 47.9612 64.4099C47.6943 64.535 47.4028 64.5992 47.108 64.5977L47.1241 64.6406ZM47.3387 63.9698C47.5453 63.9887 47.7535 63.965 47.9505 63.9C48.12 63.8386 48.2688 63.7308 48.3798 63.5888C48.4272 63.5549 48.4663 63.5107 48.4941 63.4596C48.522 63.4085 48.538 63.3518 48.5408 63.2936V62.7569C48.2423 62.6439 47.9263 62.584 47.607 62.5799C47.3439 62.5675 47.0833 62.6369 46.8611 62.7784C46.7689 62.8335 46.6933 62.9124 46.6423 63.0068C46.5913 63.1013 46.5668 63.2078 46.5713 63.3151C46.5698 63.4105 46.5892 63.5051 46.6282 63.5922C46.6671 63.6794 46.7246 63.757 46.7967 63.8195C46.952 63.9598 47.1565 64.0331 47.3656 64.0235" fill="#231F20"/>
<path d="M6.39702 72.61V68.6602L4.76557 71.6493H4.28794L2.65113 68.6602V72.61H1.78711V67.1253H2.71016L4.52944 70.4794L6.34335 67.1253H7.27177V72.61H6.39702Z" fill="#231F20"/>
<path d="M9.53655 72.6905C9.35325 72.6914 9.17135 72.6587 8.99989 72.5939C8.8389 72.5336 8.69122 72.4425 8.56518 72.3256C8.44235 72.2096 8.34433 72.0698 8.277 71.9149C8.20966 71.7599 8.17443 71.5929 8.17343 71.424C8.16888 71.2376 8.21132 71.053 8.29685 70.8873C8.38636 70.732 8.50694 70.5968 8.65104 70.4902C8.81112 70.3685 8.99341 70.2791 9.1877 70.2272C9.41043 70.1603 9.64207 70.1277 9.87463 70.1306C10.0653 70.1305 10.2556 70.1466 10.4435 70.1789C10.6135 70.2112 10.7805 70.2579 10.9426 70.3185V70.0394C10.9501 69.9121 10.9316 69.7846 10.8883 69.6646C10.8449 69.5447 10.7776 69.4348 10.6904 69.3417C10.5911 69.2524 10.4748 69.184 10.3485 69.1407C10.2221 69.0973 10.0884 69.0799 9.95514 69.0895C9.73681 69.0892 9.52029 69.1292 9.31651 69.2076C9.08925 69.2967 8.87312 69.4119 8.67252 69.551L8.40956 69.0144C8.88019 68.6779 9.44118 68.491 10.0195 68.4777C10.4915 68.4487 10.9566 68.6024 11.3182 68.907C11.4793 69.0644 11.6044 69.2548 11.685 69.4651C11.7656 69.6753 11.7997 69.9006 11.7851 70.1253V71.585C11.7851 71.7674 11.8549 71.8587 12.0052 71.864V72.5885L11.7959 72.6207H11.6188C11.4806 72.6303 11.3441 72.5861 11.2377 72.4973C11.1477 72.4139 11.089 72.3021 11.0714 72.1807V71.9231C10.8931 72.1522 10.6633 72.3361 10.4006 72.4597C10.1336 72.5849 9.84212 72.6491 9.54727 72.6476L9.53655 72.6905ZM9.77803 72.0197C9.97856 72.0212 10.1774 71.9829 10.363 71.907C10.5325 71.8456 10.6813 71.7377 10.7923 71.5957C10.8397 71.5618 10.8787 71.5177 10.9066 71.4666C10.9345 71.4154 10.9505 71.3587 10.9533 71.3005V70.7639C10.6548 70.6509 10.3387 70.5909 10.0195 70.5868C9.75636 70.5744 9.49579 70.6438 9.27357 70.7853C9.18139 70.8404 9.1058 70.9193 9.05478 71.0138C9.00377 71.1082 8.97925 71.2147 8.98379 71.322C8.98232 71.4174 9.00172 71.512 9.04065 71.5992C9.07959 71.6863 9.13711 71.7639 9.20917 71.8265C9.36452 71.9667 9.56895 72.04 9.77803 72.0304" fill="#231F20"/>
<path d="M15.3645 68.569H16.2876L14.7044 70.5331L16.4057 72.61H15.4558L14.1356 70.941H13.7546V72.61H12.9227V68.569H13.7546V70.2541H14.0712L15.3645 68.569Z" fill="#231F20"/>
<path d="M16.615 71.8801H16.8243C16.9396 71.862 17.0474 71.8118 17.1356 71.7352C17.2329 71.6453 17.3098 71.5355 17.361 71.4132C17.4324 71.2074 17.4845 70.9954 17.5166 70.78C17.5595 70.5224 17.6025 70.1897 17.6454 69.7872L17.7742 68.6011H20.4575V71.907H20.9673V73.855H20.2267V72.6368H17.361V73.855H16.6418L16.615 71.8801ZM19.6096 71.8801V69.2666H18.5362L18.4343 70.0072C18.387 70.4052 18.3135 70.7996 18.2142 71.1878C18.1553 71.4353 18.0516 71.6699 17.9083 71.8801H19.6096Z" fill="#231F20"/>
<path d="M23.554 72.6905C23.2589 72.6943 22.9663 72.6358 22.6953 72.5188C22.4482 72.413 22.2254 72.2577 22.0406 72.0626C21.8573 71.8715 21.7149 71.6451 21.622 71.3972C21.4263 70.8783 21.4263 70.306 21.622 69.7872C21.7166 69.5372 21.8608 69.3091 22.046 69.1163C22.2409 68.9139 22.4753 68.7537 22.7347 68.6457C22.9941 68.5377 23.273 68.4842 23.554 68.4885C23.8357 68.4847 24.1152 68.5385 24.3754 68.6464C24.6356 68.7544 24.871 68.9143 25.0673 69.1163C25.2508 69.3094 25.3932 69.5376 25.486 69.7872C25.6893 70.3046 25.6893 70.8798 25.486 71.3972C25.3931 71.6451 25.2506 71.8715 25.0673 72.0626C24.8805 72.2579 24.656 72.4131 24.4073 72.5188C24.1382 72.6358 23.8474 72.6943 23.554 72.6905ZM22.3518 70.6029C22.3487 70.7859 22.3797 70.9679 22.4431 71.1395C22.5012 71.2964 22.5866 71.4418 22.6953 71.5689C22.8048 71.6874 22.936 71.784 23.0817 71.8533C23.2289 71.9246 23.3904 71.9613 23.554 71.9606C23.7192 71.9608 23.8823 71.9242 24.0316 71.8533C24.1771 71.7837 24.3067 71.6851 24.4126 71.5635C24.5231 71.4347 24.6103 71.2876 24.6702 71.1288C24.7318 70.9567 24.7627 70.775 24.7615 70.5922C24.7617 70.4094 24.7309 70.2279 24.6702 70.0555C24.6116 69.8945 24.5243 69.7454 24.4126 69.6154C24.3067 69.4938 24.1771 69.3952 24.0316 69.3256C23.8837 69.2566 23.7225 69.2208 23.5593 69.2208C23.3961 69.2208 23.235 69.2566 23.0871 69.3256C22.9414 69.3972 22.8117 69.4976 22.706 69.6208C22.5956 69.7496 22.5084 69.8967 22.4485 70.0555C22.3834 70.2269 22.3507 70.4088 22.3518 70.5922" fill="#231F20"/>
<path d="M27.3159 70.1736H29.1567V68.569H29.9885V72.61H29.1567V70.8927H27.3159V72.61H26.4841V68.569H27.3159V70.1736Z" fill="#231F20"/>
<path d="M32.1781 72.6905C31.9948 72.6914 31.8129 72.6587 31.6415 72.5939C31.4811 72.5323 31.3337 72.4413 31.2068 72.3256C31.0866 72.2112 30.99 72.0745 30.9223 71.9231C30.8509 71.7664 30.8143 71.5961 30.815 71.424C30.8105 71.2376 30.8529 71.053 30.9384 70.8873C31.028 70.732 31.1485 70.5968 31.2926 70.4902C31.4527 70.3685 31.635 70.2791 31.8293 70.2272C32.0539 70.1602 32.2873 70.1276 32.5216 70.1306C32.7105 70.1307 32.899 70.1469 33.0851 70.1789C33.2551 70.2112 33.4221 70.2579 33.5842 70.3185V70.0394C33.5917 69.9121 33.5732 69.7846 33.5299 69.6646C33.4865 69.5447 33.4192 69.4348 33.332 69.3417C33.2328 69.2522 33.1166 69.1836 32.9902 69.1402C32.8638 69.0969 32.73 69.0796 32.5967 69.0895C32.3784 69.0892 32.1619 69.1292 31.9581 69.2076C31.7308 69.2967 31.5147 69.4119 31.3141 69.551L31.0512 69.0144C31.5218 68.6779 32.0828 68.491 32.6611 68.4777C33.1331 68.4487 33.5982 68.6024 33.9598 68.907C34.1209 69.0644 34.246 69.2548 34.3266 69.4651C34.4072 69.6753 34.4413 69.9006 34.4267 70.1253V71.585C34.4267 71.7674 34.5019 71.8587 34.6521 71.864V72.5885L34.4375 72.6207H34.2657C34.1261 72.629 33.9884 72.585 33.8793 72.4973C33.7893 72.4139 33.7306 72.3021 33.713 72.1807V71.9231C33.5347 72.1522 33.3049 72.3361 33.0422 72.4597C32.7752 72.5849 32.4837 72.6491 32.1889 72.6476L32.1781 72.6905ZM32.4196 72.0197C32.6202 72.0212 32.819 71.9829 33.0046 71.907C33.1741 71.8456 33.3229 71.7377 33.4339 71.5957C33.4813 71.5618 33.5203 71.5177 33.5482 71.4666C33.5761 71.4154 33.5921 71.3587 33.5949 71.3005V70.7639C33.2964 70.6509 32.9803 70.5909 32.6611 70.5868C32.398 70.5744 32.1374 70.6438 31.9152 70.7853C31.823 70.8404 31.7474 70.9193 31.6964 71.0138C31.6454 71.1082 31.6208 71.2147 31.6254 71.322C31.6239 71.4174 31.6433 71.512 31.6823 71.5992C31.7212 71.6863 31.7787 71.7639 31.8508 71.8265C32.0061 71.9667 32.2106 72.04 32.4196 72.0304" fill="#231F20"/>
<path d="M35.0707 71.9016C35.2056 71.8975 35.3377 71.8626 35.4571 71.7997C35.5747 71.7208 35.6663 71.6087 35.72 71.4777C35.8039 71.2702 35.8651 71.0543 35.9025 70.8337C35.9508 70.56 35.9991 70.2058 36.042 69.7604L36.1762 68.5743H38.8595V72.61H38.0169V69.2666H36.9436L36.8416 70.0072C36.7866 70.4384 36.7096 70.8665 36.6109 71.2898C36.548 71.5705 36.4431 71.8401 36.2996 72.0895C36.1873 72.2721 36.0254 72.4192 35.8327 72.5134C35.6216 72.6012 35.3959 72.6485 35.1673 72.6529L35.0707 71.9016Z" fill="#231F20"/>
<path d="M39.5894 71.8802H39.8147C39.93 71.862 40.0379 71.8118 40.126 71.7353C40.2209 71.636 40.2923 71.5168 40.3353 71.3864C40.4067 71.1806 40.4588 70.9686 40.4909 70.7532C40.5339 70.4956 40.5768 70.1629 40.6197 69.7604L40.7485 68.5743H43.4318V71.8802H43.9417V73.8282H43.2011V72.61H40.3246V73.8282H39.6055L39.5894 71.8802ZM42.5785 71.8802V69.2666H41.5052L41.4033 70.0072C41.356 70.4052 41.2825 70.7996 41.1832 71.1879C41.1243 71.4353 41.0206 71.67 40.8773 71.8802H42.5785Z" fill="#231F20"/>
<path d="M45.8361 72.6905C45.6528 72.6913 45.4709 72.6586 45.2994 72.5939C45.1401 72.5337 44.9942 72.4425 44.8701 72.3256C44.7467 72.2129 44.648 72.0759 44.5803 71.9231C44.5106 71.7661 44.4758 71.5958 44.4784 71.424C44.4738 71.2376 44.5163 71.053 44.6018 70.8873C44.6876 70.731 44.8067 70.5955 44.9506 70.4902C45.1115 70.3698 45.2936 70.2807 45.4873 70.2273C45.7119 70.1607 45.9453 70.1281 46.1796 70.1307C46.3685 70.1302 46.557 70.1464 46.7431 70.179C46.915 70.2106 47.0838 70.2572 47.2475 70.3185V70.0394C47.2553 69.9116 47.2364 69.7836 47.1921 69.6635C47.1478 69.5434 47.0789 69.4338 46.9899 69.3418C46.892 69.2521 46.7767 69.1834 46.6511 69.14C46.5256 69.0966 46.3925 69.0795 46.2601 69.0896C46.0417 69.0887 45.8251 69.1287 45.6214 69.2076C45.393 69.2978 45.1752 69.413 44.9721 69.5511L44.7145 69.0144C45.1847 68.6771 45.7459 68.49 46.3245 68.4778C46.7963 68.4498 47.261 68.6034 47.6232 68.9071C47.7824 69.0656 47.9059 69.2562 47.9855 69.4663C48.0651 69.6764 48.0989 69.9011 48.0847 70.1253V71.585C48.0847 71.7675 48.1598 71.8587 48.3101 71.8641V72.5886L48.0954 72.6208H47.9237C47.7855 72.6303 47.649 72.5861 47.5427 72.4973C47.4526 72.4139 47.3939 72.3022 47.3763 72.1807L47.3495 71.9231C47.1733 72.1522 46.9452 72.3361 46.684 72.4598C46.4167 72.5839 46.1255 72.648 45.8307 72.6476L45.8361 72.6905ZM46.0615 72.0197C46.262 72.0207 46.4607 71.9824 46.6465 71.907C46.8151 71.8441 46.9635 71.7365 47.0758 71.5957C47.1231 71.5619 47.1622 71.5177 47.1901 71.4666C47.2179 71.4155 47.2339 71.3587 47.2368 71.3006V70.7639C47.0873 70.7066 46.9328 70.6634 46.7753 70.6351C46.6198 70.6036 46.4616 70.5875 46.303 70.5868C46.0398 70.5745 45.7793 70.6438 45.557 70.7854C45.4649 70.8404 45.3893 70.9193 45.3383 71.0138C45.2872 71.1083 45.2627 71.2148 45.2672 71.322C45.2647 71.4171 45.2832 71.5116 45.3212 71.5987C45.3592 71.6859 45.4159 71.7637 45.4873 71.8265C45.6449 71.9666 45.8509 72.0398 46.0615 72.0304" fill="#231F20"/>
<path d="M40.5071 4.43817C40.3354 4.67967 39.6807 4.8031 39.6807 5.2378H39.466L36.7827 7.68496C36.6164 5.91935 34.9634 5.53833 34.239 4.07325C33.5842 3.95518 33.7291 3.17703 33.874 2.79063C34.1836 2.23236 34.6236 1.75731 35.1566 1.40605C35.3265 1.35804 35.5047 1.34799 35.6789 1.37664C35.853 1.40529 36.0187 1.47193 36.1641 1.57181C36.3096 1.6717 36.4313 1.80239 36.5206 1.9546C36.6099 2.10681 36.6646 2.27681 36.6808 2.45253C37.3569 2.5706 37.2174 3.76199 37.9634 3.37022C38.3498 3.03213 38.2317 2.74233 38.0868 2.3291C37.9151 2.10907 37.5984 1.89441 37.8399 1.52948C38.6664 1.01965 40.4374 0.847922 40.754 2.10907C40.8977 2.89084 40.8215 3.69714 40.534 4.43817H40.5071ZM41.8166 2.45253C41.8649 0.842555 40.2442 0.536659 39.1333 0L38.9133 0.241499C37.9419 -0.0214639 37.7004 0.654727 37.0457 1.04649C36.7827 0.826458 36.5359 0.509823 36.2246 0.461523C35.3498 0.536656 34.078 0.2415 33.434 1.16455C33.4823 1.23969 33.5789 1.28798 33.5574 1.40605C33.5359 1.52411 33.2676 1.94271 32.9724 1.86758C31.6898 4.19668 34.4053 5.50612 35.6557 7.10537C36.4071 8.97294 34.738 10.6956 35.3176 12.472H36.1173V12.0158C36.0207 12.0158 35.8275 12.0158 35.7792 11.8924L36.2407 11.5274C36.2788 10.6657 36.6123 9.84324 37.1852 9.19834C38.1297 6.97121 40.5769 7.3093 41.3551 4.90507C41.7897 4.87824 41.4302 4.20204 41.9347 4.20204L41.8166 2.45253Z" fill="#E32B26"/>
<path d="M40.1368 28.3088C39.8792 28.5181 40.1368 29.2265 39.9007 29.5538C39.7427 29.7822 39.6413 30.0448 39.6049 30.3201C39.5685 30.5954 39.5981 30.8754 39.6914 31.137H39.4553C39.5847 32.7379 39.4321 34.349 39.0045 35.8972C39.3104 36.9705 38.8167 38.2048 39.4553 39.2888C39.525 43.8182 39.407 48.4389 39.1225 53.1025C38.9562 53.3869 38.441 52.9844 38.441 53.4352H38.2049C37.8721 52.7483 37.2603 53.3386 36.6217 53.1025C34.4751 53.2688 32.3606 53.8323 29.9564 53.7625C27.8758 53.8341 25.7928 53.7245 23.7311 53.4352V53.3171C22.1963 52.8663 20.4522 53.199 18.8744 53.3171C16.9907 53.8538 14.8441 53.2473 12.7457 53.4352V53.3171C12.2734 53.1506 11.7583 53.1506 11.286 53.3171V53.4352C11.1894 53.1024 10.6957 53.2473 10.3898 53.199C10.4596 53.4352 9.75117 53.1722 9.4721 53.1025C9.56334 46.0776 10.1322 38.017 10.7172 30.8043C10.2242 28.8674 10.2242 26.8379 10.7172 24.901C11.7905 24.1711 12.1822 22.8724 13.4273 22.2177C16.5185 17.9244 21.445 15.8529 24.0585 11.1411C24.5952 10.0087 25.3787 11.2806 25.7597 11.5865C26.7257 12.1231 27.3697 13.1643 28.4913 13.5185C28.4913 13.9692 29.0816 14.2268 29.2695 14.4147C29.8598 15.1445 30.756 15.6436 31.2015 16.2286C32.611 17.2014 33.7414 18.5261 34.4804 20.0711C36.6271 21.4878 38.06 23.291 40.1368 24.6005C39.9704 25.8364 39.9704 27.089 40.1368 28.3249V28.3088ZM33.9116 12.4827C34.9259 12.3163 35.4464 13.6848 36.509 13.0462C36.2943 13.7546 36.4124 14.9835 35.7309 15.547L35.162 18.0479C34.7863 18.1391 34.8776 17.903 34.7166 17.6937C34.2175 16.937 33.3481 16.937 33.0207 16.0837C33.3696 14.9084 33.4876 13.6365 33.9116 12.4559V12.4827ZM41.5107 24.1336C39.5733 22.5236 37.314 21.2141 35.7362 19.2553C35.5913 18.6918 35.9938 18.3591 35.8543 17.7956C36.7237 16.1856 36.2782 13.717 38.0009 12.4666C38.0278 12.2519 37.6467 11.9943 37.4374 11.9299C37.0832 12.5632 36.1655 12.1607 35.5055 12.2788C34.8185 11.9031 34.3463 10.8674 33.6862 11.3611C32.7685 12.59 33.4769 14.581 32.4626 15.6544C31.0727 14.6884 29.8491 13.5775 28.384 12.59C27.3107 11.6723 25.8134 10.8244 25.3197 9.42911L26.1246 8.066C25.3894 7.8728 25.3465 8.76902 24.7562 8.74755C24.7079 8.69925 24.6113 8.62948 24.6381 8.51142H23.8599C23.7633 9.00514 23.4575 9.58474 24.1873 9.64377C24.0493 10.3671 23.6477 11.0135 23.0603 11.4577C21.2196 14.2376 18.2036 16.0085 15.8208 18.4825C14.3825 19.1641 13.8888 20.6721 12.5472 21.5254C11.8388 22.3465 10.9372 23.0334 10.4005 24.0209C10.1429 24.0209 9.78874 23.9296 9.60091 24.1389C9.83168 25.0566 8.52759 25.2713 8.70468 25.9528C8.60809 26.5217 9.24135 26.2856 9.48285 26.6129C9.817 28.5983 9.89636 30.6181 9.71898 32.6235C9.92828 34.9365 9.18232 36.729 9.15012 39.0634H9.03206C8.72616 42.5303 8.72615 46.2332 8.58662 49.6034C7.8997 51.1597 8.98375 52.5712 8.23242 54.0094C8.60808 54.6963 9.01059 53.7733 9.36478 54.3421C9.74044 54.267 10.2825 54.5514 10.4918 54.1275C14.1763 54.591 17.9017 54.6306 21.5953 54.2455C25.9583 55.4476 31.0941 54.8359 35.7416 54.3421C37.495 54.6173 39.2694 54.7358 41.0438 54.6963C40.9472 54.3153 41.4678 53.843 41.398 53.564C41.1136 53.8699 40.6896 53.5371 40.593 53.2098C40.6198 51.2993 40.8291 49.5766 40.7111 47.4568C40.8992 47.0259 40.9407 46.5451 40.8291 46.0883C41.2799 44.7252 40.593 42.6483 40.8291 41.3281C40.6896 41.0222 41.0921 40.6681 40.9472 40.1958C39.8417 37.7003 41.135 35.1512 40.7111 32.6289C40.7111 32.2532 41.2477 31.8078 40.7111 31.5019C41.3282 29.3553 40.9955 27.0906 41.7253 24.7132C41.94 24.7829 42.0098 24.5683 42.1761 24.5951C42.1064 24.359 41.8434 24.0048 41.516 24.1443" fill="#231F20"/>
<path d="M29.6665 22.3465C31.357 24.5736 33.5251 26.1031 36.2996 26.4144C36.6987 26.404 37.0966 26.3682 37.491 26.307C37.5641 26.3111 37.633 26.3427 37.6838 26.3954C37.7346 26.4482 37.7635 26.5182 37.7647 26.5915L37.652 26.9296L33.5036 33.1602C33.2997 33.5841 32.7255 33.2729 32.6289 33.7398L32.4464 34.1369C32.5877 34.3925 32.6753 34.6743 32.7039 34.965C32.7325 35.2556 32.7015 35.5491 32.6128 35.8274C32.0225 36.7397 31.1262 37.4105 30.815 38.4677C30.9277 39.2405 31.4214 39.8791 31.6629 40.6144C31.8785 41.1379 31.9791 41.7015 31.9581 42.2673C32.3713 42.1009 32.967 41.7789 33.3534 42.219C33.4945 42.4312 33.5721 42.6793 33.5768 42.9342C33.5816 43.189 33.5134 43.4399 33.3802 43.6572C33.0475 44.2905 32.2586 44.6554 31.6522 44.9935C31.5073 45.4926 31.4912 46.0937 30.9867 46.3781C30.6377 46.5671 30.2508 46.6753 29.8544 46.6947C29.8058 46.9298 29.6895 47.1456 29.5198 47.3154C29.35 47.4851 29.1342 47.6015 28.8991 47.65C28.8991 48.0149 28.8991 48.4979 28.5664 48.7233C28.4381 48.8351 28.2851 48.9149 28.1199 48.9559C27.9548 48.997 27.7822 48.9982 27.6165 48.9594C27.6002 49.2133 27.5117 49.4573 27.3615 49.6626C27.2113 49.868 27.0056 50.0262 26.7686 50.1186L26.2319 50.1615C26.0185 50.3572 25.7577 50.4938 25.4754 50.5578C25.193 50.6218 24.8988 50.611 24.6219 50.5265C24.2891 50.4291 23.9888 50.2437 23.7525 49.9898C23.5154 50.0177 23.275 49.9828 23.0556 49.8887C22.8361 49.7945 22.6453 49.6443 22.5021 49.4531C22.342 49.2239 22.2122 48.975 22.1157 48.7126C21.7752 48.651 21.4608 48.4895 21.2123 48.2487C20.9638 48.0079 20.7926 47.6986 20.7204 47.3602L20.6024 46.6464C19.3412 45.5302 19.5881 43.5606 20.114 42.1653L20.7419 40.8237C20.2965 39.8684 19.7169 38.999 19.2231 38.0545C18.9226 38.0116 18.5362 38.0545 18.3591 37.7593L16.9584 35.1995C16.674 35.0546 16.3252 35.0063 16.1534 34.6628L12.7242 28.3732C12.6931 28.266 12.6843 28.1536 12.6981 28.0429C12.712 27.9322 12.7482 27.8254 12.8047 27.7292L13.1965 27.4662C14.4898 27.2784 15.8153 26.9618 16.7867 25.8562C17.2268 25.4537 17.7151 24.7078 18.3967 25.062L18.6167 25.2766L22.2392 31.8561C22.2875 32.1351 21.9547 32.2908 22.1533 32.5323L23.3071 34.8345C23.4788 35.2156 22.9798 35.5644 23.3769 35.8757L23.4896 35.7308C23.7526 34.8614 24.1121 33.831 23.8545 32.8972C23.9296 31.8239 25.0835 31.459 25.9046 31.2067L26.2748 30.5252C26.1743 30.3848 26.1091 30.2222 26.0848 30.0512C26.0605 29.8802 26.0779 29.7059 26.1353 29.5431C27.1603 27.1442 28.2122 24.7776 29.2479 22.3948C29.3016 22.3394 29.3734 22.3052 29.4503 22.2983C29.5271 22.2914 29.6038 22.3123 29.6665 22.3572" fill="#231F20"/>
<path d="M36.6109 27.1603C36.538 27.3554 36.4328 27.5368 36.2997 27.6969C33.5037 28.0994 31.1048 26.409 29.3231 24.4072C29.3766 24.154 29.4708 23.9111 29.6022 23.6881C31.4429 25.6577 33.6862 27.4447 36.6324 27.1549" fill="#E32B26"/>
<path d="M35.6717 28.5503C35.6003 28.7449 35.4969 28.9263 35.3658 29.0869C32.645 29.1943 30.4447 27.7775 28.663 25.867C28.7193 25.6601 28.81 25.4642 28.9313 25.2874C30.7291 27.1872 32.9026 28.7005 35.6717 28.5986" fill="white"/>
<path d="M34.8453 29.7899C34.7326 29.9509 34.6468 30.3266 34.3462 30.3266C31.7649 30.3266 29.7417 29.0332 28.0137 27.3588C28.0628 27.1094 28.1574 26.8711 28.2927 26.6558C30.0852 28.3517 32.1459 29.8758 34.8453 29.806" fill="#E32B26"/>
<path d="M21.2249 31.7756C21.2517 32.5913 20.3394 32.9616 19.7813 33.4339L18.5684 34.0725C18.5204 34.1354 18.491 34.2104 18.4834 34.2891C18.4758 34.3678 18.4904 34.4471 18.5255 34.5179C18.9977 35.0546 19.5344 34.3301 19.9905 34.1852C20.5372 33.868 21.0513 33.4977 21.5254 33.0797L22.6416 35.1244C22.427 35.7845 21.7132 36.2406 21.1551 36.5841C20.4843 36.9114 19.7866 37.3515 19.0085 37.1959C18.4342 36.2782 17.9351 35.3176 17.3985 34.4052C17.2526 34.4118 17.1079 34.375 16.9828 34.2996C16.8578 34.2241 16.7578 34.1134 16.6955 33.9813L13.6043 28.4108C13.5614 28.2176 13.8029 28.2068 13.9048 28.1371C15.4021 27.9868 16.7921 26.9779 17.8708 25.926L18.0586 25.9743L21.2249 31.7756Z" fill="#E32B26"/>
<path d="M34.0242 30.9652C33.9467 31.1748 33.8301 31.3678 33.6808 31.5341C31.1746 31.5824 29.146 30.3588 27.4287 28.7542C27.4564 28.495 27.5466 28.2463 27.6917 28.0297C29.4573 29.6397 31.4483 30.9438 34.0242 30.9652Z" fill="white"/>
<path d="M33.171 32.1674C33.171 32.3606 32.9992 32.4679 32.8865 32.6182C30.5252 32.6182 28.5933 31.5449 26.9189 30.1334C26.8116 29.9349 26.9511 29.6934 27.0477 29.527C28.7704 30.9438 30.7184 32.1298 33.171 32.1674Z" fill="#E32B26"/>
<path d="M31.899 33.3963C31.8475 33.64 31.7416 33.8689 31.5892 34.0659C31.4368 34.2629 31.2418 34.423 31.0189 34.534C30.5372 34.755 30.0102 34.8595 29.4807 34.839C28.9511 34.8185 28.4338 34.6735 27.9706 34.416C27.2676 33.9652 26.5485 33.509 26.5002 32.5967C26.4938 32.1097 26.6402 31.633 26.9188 31.2336C28.3802 32.3425 30.0894 33.0793 31.899 33.3802" fill="#E32B26"/>
<path d="M25.6416 32.4142C25.596 32.8812 25.6861 33.3514 25.9013 33.7684C26.1164 34.1854 26.4474 34.5313 26.8545 34.7648C28.0244 35.6342 29.9564 36.0366 31.2926 35.3014L31.7971 35.0009C31.8553 35.0685 31.8936 35.151 31.9079 35.2391C31.9221 35.3272 31.9116 35.4175 31.8776 35.5C31.3409 36.423 30.5413 37.169 30.1281 38.1457C29.9456 39.6269 31.3195 40.6895 31.137 42.2029C31.0831 43.2226 30.9594 44.2375 30.7667 45.2403C30.6907 44.6006 30.4657 43.9877 30.1096 43.4508C29.7536 42.9139 29.2764 42.4681 28.7167 42.1492C28.4541 42.0884 28.1782 42.1286 27.9439 42.2619C27.7522 42.4205 27.6044 42.6256 27.5146 42.8576C27.2301 42.6966 26.9242 42.8576 26.6666 42.9112C26.4474 43.0327 26.2668 43.2133 26.1453 43.4325C26.0238 43.6517 25.9664 43.9007 25.9797 44.1509C25.7738 44.2243 25.5914 44.3516 25.4517 44.5197C25.3119 44.6878 25.22 44.8903 25.1854 45.1062C25.2176 45.396 25.1371 45.7394 25.2874 45.9917C24.4985 46.9845 24.8044 48.4013 25.2874 49.4209L25.5665 49.7644C25.4589 49.8241 25.338 49.8554 25.215 49.8554C25.092 49.8554 24.971 49.8241 24.8635 49.7644C23.9243 49.319 23.9726 48.1544 24.037 47.2099C24.037 46.6357 24.4288 45.879 24.0102 45.4228C23.967 45.405 23.9206 45.3964 23.8739 45.3974C23.8273 45.3984 23.7813 45.4091 23.7389 45.4287C23.6966 45.4484 23.6588 45.4766 23.6279 45.5116C23.597 45.5466 23.5736 45.5877 23.5594 45.6321C23.2749 46.7484 23.0227 48.0793 23.3447 49.1794C22.6578 48.7447 22.588 47.8592 22.6471 47.1026C22.7282 46.1658 22.8971 45.2386 23.1515 44.3334C23.1545 44.259 23.1395 44.1851 23.1077 44.1178C23.0759 44.0505 23.0284 43.9919 22.9691 43.947C22.7705 43.8289 22.5773 44.0007 22.4968 44.1563C22.1073 45.3411 21.9345 46.5864 21.987 47.8324C21.6113 47.7465 21.4825 47.2958 21.3752 46.9416C21.2142 45.8253 21.6006 44.7037 21.8313 43.6411C21.8313 43.464 21.8313 43.2118 21.5952 43.1688C20.9995 43.2064 21.0585 43.9416 20.8492 44.3871L20.6883 45.5033C20.1838 44.811 20.436 43.7538 20.6131 42.9273C21.402 40.8397 22.6363 39.0044 23.6613 37.0241C24.1282 35.9078 24.8098 34.8131 24.7347 33.4821C24.6442 33.136 24.6924 32.7683 24.8688 32.4571C25.0861 32.2671 25.3517 32.1408 25.6363 32.0922L25.6416 32.4142Z" fill="#FFC628"/>
<path d="M22.969 36.7665C22.4473 37.8681 21.8706 38.9428 21.241 39.9865H21.1927L20.0764 37.9311C21.0314 37.5433 21.9231 37.0151 22.7221 36.364C22.8402 36.4392 22.8885 36.6324 22.969 36.7719" fill="white"/>
<path d="M25.0674 38.8595C25.0674 39.2405 24.901 39.5893 24.8957 39.9328C25.2713 39.3962 25.6577 38.6878 26.291 38.4194C26.3756 38.4312 26.4546 38.4682 26.5178 38.5257C26.5811 38.5831 26.6254 38.6583 26.6452 38.7414C26.734 40.1732 26.4897 41.606 25.9314 42.9274C25.7595 42.8557 25.6029 42.7519 25.4699 42.6215C25.8305 41.648 26.1175 40.6488 26.3285 39.6323C26.3285 39.3801 26.5217 39.0151 26.2963 38.8327C25.8455 39.0903 25.6523 39.584 25.3518 39.9811C25.0406 40.5553 24.7561 41.1671 24.4932 41.7414C24.3375 41.5535 23.6774 41.4408 23.9887 41.0544C24.4361 40.1407 24.723 39.1568 24.8366 38.1457C24.8095 38.1189 24.7728 38.1038 24.7346 38.1038C24.6965 38.1038 24.6598 38.1189 24.6327 38.1457C23.9051 38.9245 23.3089 39.8162 22.8671 40.7861L22.4377 40.4748C23.0656 39.4659 23.5969 38.296 24.74 37.6949C24.7916 37.6906 24.8435 37.6981 24.8918 37.7167C24.9402 37.7352 24.9837 37.7645 25.0191 37.8023C25.2069 38.1082 25.0674 38.5375 25.0674 38.8756" fill="#231F20"/>
<path d="M32.924 42.9381C32.9616 43.5123 32.3551 43.8021 31.9526 44.0114C31.9043 44.0114 31.7916 44.0597 31.8131 43.9685L31.899 43.1635C32.172 42.9677 32.4827 42.8307 32.8113 42.761L32.924 42.9381Z" fill="white"/>
<path d="M29.7953 44.4354C29.9456 44.8486 30.332 45.4121 29.8973 45.8146C29.8168 45.8146 29.7739 45.9005 29.6987 45.8629C29.3615 44.8915 28.8114 44.0077 28.0887 43.2762C28.1317 43.1206 28.1209 42.9113 28.3249 42.82C29.146 42.9059 29.3982 43.8397 29.7846 44.43" fill="white"/>
<path d="M28.4215 44.8218C28.6201 45.5302 29.6183 46.3781 28.7542 47.0221C28.2422 46.0117 27.5513 45.1026 26.7149 44.3388C26.6856 44.2511 26.6743 44.1583 26.6816 44.0661C26.689 43.9739 26.7149 43.8841 26.7579 43.8021C26.8435 43.6862 26.9702 43.6074 27.1121 43.5821C27.7561 43.6948 28.0888 44.3656 28.4215 44.8593" fill="white"/>
<path d="M27.5199 46.1366C27.8756 46.6572 28.1204 47.2454 28.239 47.8646C28.2295 47.9622 28.1935 48.0553 28.1348 48.1338C28.0762 48.2123 27.9971 48.2733 27.9063 48.3101L27.5306 48.2403C27.2301 47.4139 27.0691 46.1849 26.0119 45.9327C25.923 45.7958 25.8678 45.6398 25.8511 45.4774C25.8343 45.3151 25.8563 45.1511 25.9153 44.9989C25.9896 44.934 26.0849 44.8982 26.1836 44.8982C26.2823 44.8982 26.3776 44.934 26.4519 44.9989C26.9131 45.2748 27.2856 45.6771 27.5252 46.1581" fill="white"/>
<path d="M26.4198 47.108C26.6777 47.6878 26.8146 48.3141 26.8223 48.9487C26.774 49.1204 26.6559 49.3458 26.4305 49.3566C25.8026 49.2761 25.7812 48.5247 25.5719 48.074C25.4567 47.6356 25.5044 47.1704 25.706 46.7645C25.9851 46.523 26.3178 46.8396 26.4198 47.108Z" fill="white"/>
<path d="M43.6573 53.5049H43.8075C43.9793 53.5049 44.1242 53.4459 44.1242 53.2849C44.1242 53.1239 44.0383 53.0541 43.8075 53.0541H43.6573V53.5049ZM43.6573 54.2187H43.4534V52.9253C43.5744 52.9092 43.6962 52.9003 43.8183 52.8985C43.9594 52.8863 44.1006 52.9202 44.2208 52.9951C44.2683 53.0345 44.3039 53.0863 44.3237 53.1448C44.3434 53.2033 44.3465 53.2661 44.3326 53.3263C44.3187 53.3864 44.2883 53.4415 44.2449 53.4854C44.2014 53.5293 44.1466 53.5602 44.0866 53.5747C44.1993 53.5747 44.2798 53.6981 44.3013 53.8913C44.312 54.0009 44.3411 54.1079 44.3871 54.2079H44.1939C44.1476 54.1043 44.1186 53.9937 44.1081 53.8806C44.1062 53.8468 44.0973 53.8138 44.0819 53.7837C44.0665 53.7536 44.045 53.7271 44.0187 53.7058C43.9924 53.6846 43.9619 53.6691 43.9292 53.6604C43.8965 53.6516 43.8624 53.6499 43.829 53.6552H43.6573V54.2187ZM43.8773 52.5658C43.6169 52.5658 43.3671 52.6692 43.1829 52.8534C42.9987 53.0376 42.8952 53.2874 42.8952 53.5478C42.8952 53.8083 42.9987 54.0581 43.1829 54.2423C43.3671 54.4265 43.6169 54.5299 43.8773 54.5299C44.0023 54.5272 44.1255 54.4996 44.2397 54.4489C44.354 54.3982 44.457 54.3252 44.5429 54.2344C44.6287 54.1435 44.6957 54.0365 44.7399 53.9196C44.7841 53.8027 44.8047 53.6781 44.8004 53.5532C44.8054 53.4276 44.7854 53.3022 44.7416 53.1843C44.6978 53.0665 44.631 52.9585 44.5452 52.8666C44.4593 52.7748 44.356 52.7009 44.2414 52.6492C44.1268 52.5976 44.003 52.5692 43.8773 52.5658ZM43.8773 52.3887C44.1083 52.3865 44.3347 52.4532 44.5278 52.5801C44.7208 52.707 44.8717 52.8884 44.9613 53.1013C45.051 53.3142 45.0753 53.549 45.0311 53.7757C44.987 54.0025 44.8764 54.211 44.7134 54.3747C44.5504 54.5384 44.3424 54.65 44.1159 54.6952C43.8894 54.7404 43.6545 54.7172 43.4412 54.6286C43.2278 54.5399 43.0457 54.3898 42.9179 54.1974C42.7901 54.005 42.7224 53.7789 42.7235 53.5478C42.7213 53.3955 42.7497 53.2442 42.8068 53.103C42.864 52.9617 42.9488 52.8333 43.0563 52.7253C43.1638 52.6173 43.2918 52.5319 43.4328 52.4741C43.5738 52.4163 43.7249 52.3872 43.8773 52.3887Z" fill="#231F20"/>
<path d="M36.7719 7.68498C36.6056 5.91937 34.9526 5.53834 34.2282 4.07326C33.5734 3.9552 33.7183 3.17704 33.8632 2.79065C34.1728 2.23238 34.6128 1.75733 35.1459 1.40607C35.3143 1.36075 35.4906 1.35281 35.6625 1.38279C35.8343 1.41278 35.9975 1.47998 36.1407 1.57967C36.2838 1.67936 36.4034 1.80914 36.4912 1.95992C36.5789 2.1107 36.6326 2.27884 36.6485 2.45255C37.3301 2.57061 37.1852 3.762 37.9365 3.37024C38.3229 3.03215 38.2048 2.74235 38.0599 2.32912C37.8882 2.10909 37.5715 1.89442 37.813 1.5295C38.6395 1.01967 40.4105 0.847939 40.7217 2.10909C40.87 2.89023 40.7956 3.69731 40.5071 4.43819" fill="white"/>
<path d="M36.3748 63.8518C36.5096 63.8477 36.6418 63.8128 36.7612 63.7498C36.8802 63.6725 36.9721 63.5599 37.0241 63.4278C37.113 63.2221 37.1743 63.0056 37.2066 62.7838C37.2549 62.5101 37.3032 62.1559 37.3515 61.7105L37.4803 60.5191H40.1636V64.5601H39.321V61.2168H38.2477L38.1457 61.9574C38.0933 62.3889 38.0163 62.8172 37.915 63.24C37.8569 63.5221 37.7517 63.7925 37.6037 64.0396C37.4935 64.2221 37.3333 64.3692 37.1422 64.4636C36.9292 64.5513 36.7017 64.5986 36.4714 64.6031L36.3748 63.8518Z" fill="#231F20"/>
</svg>
